<svg width="25" height="25" viewBox="0 0 25 25" fill="none" xmlns="http://www.w3.org/2000/svg">
    <path fill-rule="evenodd" clip-rule="evenodd" d="M12.5 8.85425C10.4865 8.85425 8.85417 10.4865 8.85417 12.5001C8.85417 14.5136 10.4865 16.1459 12.5 16.1459C14.5135 16.1459 16.1458 14.5136 16.1458 12.5001C16.1458 10.4865 14.5135 8.85425 12.5 8.85425ZM10.4167 12.5001C10.4167 11.3495 11.3494 10.4167 12.5 10.4167C13.6506 10.4167 14.5833 11.3495 14.5833 12.5001C14.5833 13.6507 13.6506 14.5834 12.5 14.5834C11.3494 14.5834 10.4167 13.6507 10.4167 12.5001Z" fill="#67728A"/>
    <path fill-rule="evenodd" clip-rule="evenodd" d="M12.5 4.948C6.81997 4.948 3.49363 9.65667 2.40692 12.1923C2.31041 12.4175 2.32513 12.675 2.44669 12.8877C3.82362 15.2973 6.80227 20.0522 12.5 20.0522C18.1977 20.0522 21.1764 15.2973 22.5533 12.8877C22.6829 12.6609 22.6906 12.3843 22.5738 12.1507C22.0246 11.0524 20.931 9.27283 19.2779 7.75751C17.6193 6.23714 15.3562 4.948 12.5 4.948ZM12.5 18.4897C7.99639 18.4897 5.44379 14.914 4.00252 12.4567C5.12899 10.1047 7.99421 6.5105 12.5 6.5105C14.8521 6.5105 16.7557 7.5651 18.2221 8.90931C19.5222 10.1011 20.4461 11.4931 20.9835 12.4806C19.5397 14.9371 16.9891 18.4897 12.5 18.4897Z" fill="#67728A"/>
</svg>
